<?xml version="1.0" encoding="utf-8"?>
<!-- Generator: Adobe Illustrator 26.2.1, SVG Export Plug-In . SVG Version: 6.00 Build 0)  -->
<svg version="1.1" id="Layer_1" xmlns="http://www.w3.org/2000/svg" xmlns:xlink="http://www.w3.org/1999/xlink" x="0px" y="0px"
	 viewBox="0 0 347.2 347.2" style="enable-background:new 0 0 347.2 347.2;" xml:space="preserve">
<style type="text/css">
	.st0{fill:#48C400;}
</style>
<g>
	<path class="st0" d="M173.6,0c-46,0-90.2,18.3-122.8,50.8C18.3,83.4,0,127.6,0,173.6s18.3,90.2,50.8,122.8
		c32.6,32.6,76.7,50.8,122.8,50.8s90.2-18.3,122.8-50.8c32.6-32.6,50.8-76.7,50.8-122.8s-18.3-90.2-50.8-122.7
		C263.8,18.3,219.6,0,173.6,0L173.6,0z M173.6,313.6c-37.1,0-72.7-14.8-99-41c-26.3-26.3-41-61.9-41-99s14.8-72.7,41-99
		c26.3-26.3,61.9-41,99-41s72.7,14.8,99,41c26.3,26.3,41,61.9,41,99s-14.8,72.7-41,99C246.3,298.9,210.7,313.6,173.6,313.6z"/>
	<path class="st0" d="M156.8,194.6l-38.5-38.5l-23.7,23.7l50.4,50.4l0,0c3.1,3.1,7.4,4.9,11.9,4.9s8.7-1.8,11.9-4.9l89.6-89.6
		l-23.7-23.7L156.8,194.6z"/>
</g>
</svg>
